<?xml version="1.0" encoding="iso-8859-1"?>
<!-- Generator: Adobe Illustrator 19.1.0, SVG Export Plug-In . SVG Version: 6.00 Build 0)  -->
<svg version="1.1" id="Capa_1" xmlns="http://www.w3.org/2000/svg" xmlns:xlink="http://www.w3.org/1999/xlink" x="0px" y="0px"
	 viewBox="0 0 66.916 66.916" style="enable-background:new 0 0 66.916 66.916;" xml:space="preserve">
<g>
	<g>
		<path d="M43.35,32.745L28.118,15.94c-0.743-0.817-2.007-0.882-2.825-0.139c-0.818,0.741-0.88,2.006-0.139,2.824l14.038,15.488
			L23.705,48.15c-0.818,0.741-0.88,2.006-0.139,2.824c0.395,0.436,0.938,0.657,1.482,0.657c0.479,0,0.96-0.171,1.343-0.519
			l16.804-15.231c0.451-0.408,0.663-0.975,0.646-1.539C43.914,33.784,43.759,33.196,43.35,32.745z"/>
		<path d="M66.916,33.457C66.916,15.009,51.906,0,33.458,0C15.009,0,0,15.009,0,33.457c0,18.449,15.009,33.458,33.458,33.458
			C51.906,66.915,66.916,51.907,66.916,33.457z M33.459,62.915c-16.243,0-29.458-13.215-29.458-29.458
			C4.001,17.215,17.216,4,33.459,4s29.458,13.215,29.458,29.457C62.916,49.701,49.701,62.915,33.459,62.915z"/>
	</g>
</g>
<g>
</g>
<g>
</g>
<g>
</g>
<g>
</g>
<g>
</g>
<g>
</g>
<g>
</g>
<g>
</g>
<g>
</g>
<g>
</g>
<g>
</g>
<g>
</g>
<g>
</g>
<g>
</g>
<g>
</g>
</svg>
